name rise38.3101peak57.3503fall81.6963.mot
datacolumns 19
datarows 28
range 0.000000 0.045004
endheader
time	ground_force1_vx	ground_force1_vy	ground_force1_vz	ground_force1_px	ground_force1_py	ground_force1_pz	ground_force2_vx	ground_force2_vy	ground_force2_vz	ground_force2_px	ground_force2_py	ground_force2_pz	ground_torque1_x	ground_torque1_y	ground_torque1_z	ground_torque2_x	ground_torque2_y	ground_torque2_z	
0.000000	4.596188	717.602920	52.454231	0.182162	0.000000	0.132454	0.000000	0.000000	0.000000	0.000000	0.000000	0.000000	0.000000	16.905527	0.000000	0.000000	0.000000	0.000000	
0.001669	4.134075	717.801710	52.308177	0.182187	0.000000	0.132441	0.000000	0.000000	0.000000	0.000000	0.000000	0.000000	0.000000	17.089717	0.000000	0.000000	0.000000	0.000000	
0.003347	3.675981	717.998919	52.163337	0.182211	0.000000	0.132427	0.000000	0.000000	0.000000	0.000000	0.000000	0.000000	0.000000	17.272291	0.000000	0.000000	0.000000	0.000000	
0.005001	3.220397	718.201324	52.020002	0.182234	0.000000	0.132411	0.000000	0.000000	0.000000	0.000000	0.000000	0.000000	0.000000	17.453811	0.000000	0.000000	0.000000	0.000000	
0.006673	2.765215	718.416171	51.878310	0.182255	0.000000	0.132393	0.000000	0.000000	0.000000	0.000000	0.000000	0.000000	0.000000	17.635073	0.000000	0.000000	0.000000	0.000000	
0.008338	2.307970	718.650797	51.738291	0.182274	0.000000	0.132374	0.000000	0.000000	0.000000	0.000000	0.000000	0.000000	0.000000	17.817009	0.000000	0.000000	0.000000	0.000000	
0.010005	1.846077	718.912284	51.599912	0.182290	0.000000	0.132353	0.000000	0.000000	0.000000	0.000000	0.000000	0.000000	0.000000	18.000591	0.000000	0.000000	0.000000	0.000000	
0.011671	1.377043	719.207187	51.463128	0.182302	0.000000	0.132330	0.000000	0.000000	0.000000	0.000000	0.000000	0.000000	0.000000	18.186750	0.000000	0.000000	0.000000	0.000000	
0.013338	0.898636	719.541328	51.327911	0.182309	0.000000	0.132305	0.000000	0.000000	0.000000	0.000000	0.000000	0.000000	0.000000	18.376307	0.000000	0.000000	0.000000	0.000000	
0.015004	0.409007	719.919664	51.194289	0.182312	0.000000	0.132279	0.000000	0.000000	0.000000	0.000000	0.000000	0.000000	0.000000	18.569926	0.000000	0.000000	0.000000	0.000000	
0.016674	-0.093225	720.346235	51.062365	0.182309	0.000000	0.132251	0.000000	0.000000	0.000000	0.000000	0.000000	0.000000	0.000000	18.768081	0.000000	0.000000	0.000000	0.000000	
0.018340	-0.608945	720.824172	50.932326	0.182299	0.000000	0.132222	0.000000	0.000000	0.000000	0.000000	0.000000	0.000000	0.000000	18.971046	0.000000	0.000000	0.000000	0.000000	
0.020005	-1.138545	721.355760	50.804458	0.182282	0.000000	0.132190	0.000000	0.000000	0.000000	0.000000	0.000000	0.000000	0.000000	19.178893	0.000000	0.000000	0.000000	0.000000	
0.021674	-1.681962	721.942538	50.679135	0.182257	0.000000	0.132157	0.000000	0.000000	0.000000	0.000000	0.000000	0.000000	0.000000	19.391513	0.000000	0.000000	0.000000	0.000000	
0.023341	-2.238738	722.585425	50.556812	0.182222	0.000000	0.132123	0.000000	0.000000	0.000000	0.000000	0.000000	0.000000	0.000000	19.608639	0.000000	0.000000	0.000000	0.000000	
0.025001	-2.808098	723.284856	50.438018	0.182177	0.000000	0.132087	0.000000	0.000000	0.000000	0.000000	0.000000	0.000000	0.000000	19.829874	0.000000	0.000000	0.000000	0.000000	
0.026675	-3.389030	724.040918	50.323335	0.182122	0.000000	0.132049	0.000000	0.000000	0.000000	0.000000	0.000000	0.000000	0.000000	20.054731	0.000000	0.000000	0.000000	0.000000	
0.028335	-3.980368	724.853470	50.213385	0.182055	0.000000	0.132010	0.000000	0.000000	0.000000	0.000000	0.000000	0.000000	0.000000	20.282657	0.000000	0.000000	0.000000	0.000000	
0.030004	-4.580871	725.722252	50.108814	0.181974	0.000000	0.131970	0.000000	0.000000	0.000000	0.000000	0.000000	0.000000	0.000000	20.513072	0.000000	0.000000	0.000000	0.000000	
0.031670	-5.189282	726.646966	50.010276	0.181881	0.000000	0.131929	0.000000	0.000000	0.000000	0.000000	0.000000	0.000000	0.000000	20.745391	0.000000	0.000000	0.000000	0.000000	
0.033337	-5.804387	727.627334	49.918418	0.181772	0.000000	0.131886	0.000000	0.000000	0.000000	0.000000	0.000000	0.000000	0.000000	20.979046	0.000000	0.000000	0.000000	0.000000	
0.035009	-6.425045	728.663131	49.833876	0.181648	0.000000	0.131842	0.000000	0.000000	0.000000	0.000000	0.000000	0.000000	0.000000	21.213502	0.000000	0.000000	0.000000	0.000000	
0.036669	-7.050223	729.754197	49.757259	0.181508	0.000000	0.131797	0.000000	0.000000	0.000000	0.000000	0.000000	0.000000	0.000000	21.448267	0.000000	0.000000	0.000000	0.000000	
0.038339	-7.678996	730.900432	49.689148	0.181350	0.000000	0.131751	0.000000	0.000000	0.000000	0.000000	0.000000	0.000000	0.000000	21.682894	0.000000	0.000000	0.000000	0.000000	
0.040003	-8.310555	732.101769	49.630093	0.181175	0.000000	0.131704	0.000000	0.000000	0.000000	0.000000	0.000000	0.000000	0.000000	21.916985	0.000000	0.000000	0.000000	0.000000	
0.041667	-8.944194	733.358145	49.580607	0.180980	0.000000	0.131656	0.000000	0.000000	0.000000	0.000000	0.000000	0.000000	0.000000	22.150186	0.000000	0.000000	0.000000	0.000000	
0.043342	-9.579298	734.669462	49.541170	0.180765	0.000000	0.131608	0.000000	0.000000	0.000000	0.000000	0.000000	0.000000	0.000000	22.382182	0.000000	0.000000	0.000000	0.000000	
0.045004	-10.215325	736.035544	49.512229	0.180530	0.000000	0.131559	0.000000	0.000000	0.000000	0.000000	0.000000	0.000000	0.000000	22.612689	0.000000	0.000000	0.000000	0.000000	
